<?xml version="1.0" encoding="UTF-8"?>
<svg id="Laag_2" data-name="Laag 2" xmlns="http://www.w3.org/2000/svg" xmlns:xlink="http://www.w3.org/1999/xlink" viewBox="0 0 1285.82 186.69">
  <defs>
    <style>
      .cls-1 {
        stroke: url(#Naamloos_verloop_9-2);
      }

      .cls-1, .cls-2 {
        fill: none;
        stroke-linecap: round;
        stroke-miterlimit: 10;
        stroke-width: 15px;
      }

      .cls-3 {
        fill: #fff;
      }

      .cls-4 {
        fill: #c1a360;
      }

      .cls-2 {
        stroke: url(#Naamloos_verloop_9);
      }
    </style>
    <linearGradient id="Naamloos_verloop_9" data-name="Naamloos verloop 9" x1="0" y1="94.4" x2="247.96" y2="94.4" gradientUnits="userSpaceOnUse">
      <stop offset="0" stop-color="#fff"/>
      <stop offset="1" stop-color="#fff" stop-opacity=".1"/>
    </linearGradient>
    <linearGradient id="Naamloos_verloop_9-2" data-name="Naamloos verloop 9" x1="64.69" y1="92.3" x2="312.66" y2="92.3" xlink:href="#Naamloos_verloop_9"/>
  </defs>
  <g id="Laag_1-2" data-name="Laag 1">
    <g>
      <g>
        <path class="cls-3" d="m386.88,127.55c9.26,4.74,23.5,9.49,38.18,9.49,15.81,0,24.17-6.55,24.17-16.49s-7.23-14.91-25.53-21.46c-25.3-8.81-41.8-22.82-41.8-44.96,0-25.98,21.69-45.86,57.61-45.86,17.17,0,29.82,3.61,38.86,7.68l-7.68,27.79c-6.1-2.94-16.94-7.23-31.85-7.23s-22.14,6.78-22.14,14.69c0,9.71,8.58,14.01,28.24,21.46,26.88,9.94,39.54,23.95,39.54,45.41,0,25.53-19.66,47.22-61.45,47.22-17.4,0-34.57-4.52-43.15-9.26l7-28.47Z"/>
        <path class="cls-3" d="m507.75,10.75h34.11v67.32h.68c3.39-5.87,7-11.3,10.39-16.72l34.57-50.61h42.25l-50.38,64.84,53.09,87.43h-40.21l-37.28-65.74-13.1,16.04v49.7h-34.11V10.75Z"/>
        <path class="cls-3" d="m737.06,98.63h-56.03v36.15h62.58v28.24h-97.15V10.75h93.98v28.24h-59.42v31.63h56.03v28.01Z"/>
        <path class="cls-3" d="m857.7,98.63h-56.03v36.15h62.58v28.24h-97.15V10.75h93.98v28.24h-59.42v31.63h56.03v28.01Z"/>
        <path class="cls-3" d="m887.75,10.75h34.57v123.35h60.55v28.92h-95.11V10.75Z"/>
        <path class="cls-3" d="m1030.53,10.75v87.66c0,26.21,9.94,39.54,27.56,39.54s28.01-12.65,28.01-39.54V10.75h34.34v85.4c0,46.99-23.72,69.36-63.48,69.36s-61-21.24-61-69.81V10.75h34.57Z"/>
        <path class="cls-3" d="m1150.27,12.78c10.62-1.81,25.53-3.16,46.54-3.16s36.37,4.07,46.54,12.2c9.71,7.68,16.27,20.33,16.27,35.24s-4.97,27.56-14.01,36.15c-11.75,11.07-29.14,16.04-49.48,16.04-4.52,0-8.58-.23-11.75-.68v54.45h-34.11V12.78Zm34.11,69.13c2.94.68,6.55.9,11.52.9,18.3,0,29.6-9.26,29.6-24.85,0-14.01-9.71-22.37-26.88-22.37-7,0-11.75.68-14.23,1.36v44.96Z"/>
        <path class="cls-4" d="m1245.38,144.72c0-12.2,8.36-21.01,20.33-21.01s20.11,8.58,20.11,21.01-8.13,20.79-20.33,20.79-20.11-8.81-20.11-20.79Z"/>
      </g>
      <path class="cls-2" d="m66.57,9.6c-12.26,4.16-23.78,11.12-33.56,20.9C-1,64.51-1,119.66,33.01,153.68c34.02,34.02,89.17,34.02,123.18,0l84.27-84.27"/>
      <path class="cls-1" d="m246.09,177.09c12.26-4.16,23.78-11.12,33.56-20.9,34.02-34.02,34.02-89.17,0-123.18-34.02-34.02-89.17-34.02-123.18,0l-84.27,84.27"/>
    </g>
  </g>
</svg>