<?xml version="1.0" encoding="UTF-8"?>
<svg id="Laag_2" data-name="Laag 2" xmlns="http://www.w3.org/2000/svg" viewBox="0 0 1843.2 52.8">
  <defs>
    <style>
      .cls-1 {
        fill: #e30613;
      }

      .cls-1, .cls-2, .cls-3 {
        stroke-width: 0px;
      }

      .cls-2 {
        fill: #fff;
      }

      .cls-3 {
        fill: #009640;
      }
    </style>
  </defs>
  <g id="Laag_2-2" data-name="Laag 2">
    <g id="Laag_1-2" data-name="Laag 1-2">
      <g>
        <path class="cls-2" d="m1819.96,0c-76.73,5.26-452.78,30.34-839.63,24.81C546.97,18.62,426.1,24.08,0,43.83v8.97h1843.2V0h-23.24Z"/>
        <g>
          <path class="cls-1" d="m0,43.88S404.33,8.06,919.34,19.03C1363.84,28.5,1834.16,0,1834.16,0c0,0-420.14,31-853.83,24.81C546.63,18.62,426.92,24.08,0,43.88Z"/>
          <path class="cls-3" d="m47.44,52.8S385.66,17.78,978.07,29.32c444.99,8.67,865.13-23.57,865.13-23.57,0,0-341.51,37.3-774.77,30.18-426.92-7.02-587.29-5.03-1020.99,16.87h0Z"/>
        </g>
      </g>
    </g>
  </g>
</svg>